# xmcd
#
# Track frame offsets: 
#        150
#        15816
#        28878
#        41756
#        55528
#        68428
#        82255
#        98109
#        108307
#        119563
#        131589
#        140402
#
# Disc length: 2037 seconds
#
# Revision: 0
# Processed by: cddbd v1.5.1PL2 Copyright (c) Steve Scherf et al.
# Submitted via: ExactAudioCopy v0.95b3
#
DISCID=9b07f30c
DTITLE=Xangô da Mangueira - Xangô da Mangueira - Vol.3
DYEAR=1978
DGENRE=MPB
TTITLE0=Dá no nego
TTITLE1=A cobra sussurana
TTITLE2=Não xinxa o boi
TTITLE3=Chico Jongueiro
TTITLE4=Louvação aos grandes e aos pequenos
TTITLE5=Perdi minha alegria
TTITLE6=Mineiro ê
TTITLE7=Zé Cansado
TTITLE8=Quem fala alto é gogó
TTITLE9=Mulher da melhor qualidade
TTITLE10=Não adianta falar mal de mim
TTITLE11=Quilombo
EXTD=
EXTT0=
EXTT1=
EXTT2=
EXTT3=
EXTT4=
EXTT5=
EXTT6=
EXTT7=
EXTT8=
EXTT9=
EXTT10=
EXTT11=
PLAYORDER=
